<svg xmlns="http://www.w3.org/2000/svg" xmlns:xlink="http://www.w3.org/1999/xlink" width="245" height="51.438" viewBox="0 0 245 51.438">
  <defs>
    <clipPath id="clip-path">
      <rect id="Rectangle_1" data-name="Rectangle 1" width="51.006" height="50.994" fill="#fff"/>
    </clipPath>
  </defs>
  <g id="Group_32" data-name="Group 32" transform="translate(3147 -6843)">
    <g id="Group_16" data-name="Group 16" transform="translate(-3147 6843.444)">
      <g id="Group_1" data-name="Group 1" clip-path="url(#clip-path)">
        <path id="Path_1" data-name="Path 1" d="M8.863,13.076,8.849,6.684a.246.246,0,0,1,.186-.208.241.241,0,0,1,.228.07L18.912,16.2l2.748-2.745,0,0L15.793,7.586l0,0a1.273,1.273,0,0,1-.414-.938c0-.012,0-6.416,0-6.416a.248.248,0,0,1,.184-.22A.243.243,0,0,1,15.8.08L25.4,9.71l9.6-9.627A.264.264,0,0,1,35.189,0a.238.238,0,0,1,.242.24v6.5a1.448,1.448,0,0,1-.542,1.017l-.02.02L19.34,23.294a.592.592,0,0,1-.427.207.543.543,0,0,1-.371-.148L9.257,14.077a1.323,1.323,0,0,1-.394-1M14.077,41.66l9.276-9.285A.545.545,0,0,0,23.5,32a.591.591,0,0,0-.206-.427L7.774,16.047l-.019-.02a1.447,1.447,0,0,0-1.017-.542H.24a.238.238,0,0,0-.24.242.261.261,0,0,0,.083.184l9.626,9.6L.08,35.116a.242.242,0,0,0-.07.238.247.247,0,0,0,.22.184l6.415,0a1.273,1.273,0,0,0,.938-.414l0,0,5.867-5.866h0L16.2,32,6.546,41.653a.24.24,0,0,0-.071.228.248.248,0,0,0,.208.186l6.391-.014a1.321,1.321,0,0,0,1-.394m27.542,2.788a.239.239,0,0,0,.228.07.247.247,0,0,0,.187-.208l-.014-6.391a1.321,1.321,0,0,0-.394-1L32.34,27.642a.545.545,0,0,0-.371-.148.591.591,0,0,0-.427.207L16.013,43.22l-.019.019a1.447,1.447,0,0,0-.543,1.017v6.5a.238.238,0,0,0,.243.24.262.262,0,0,0,.184-.083l9.6-9.627,9.6,9.629a.242.242,0,0,0,.238.07.248.248,0,0,0,.184-.22s0-6.4,0-6.416a1.273,1.273,0,0,0-.413-.938l0,0-5.867-5.866v0L31.969,34.8ZM27.5,18.988a.59.59,0,0,0,.207.427l15.52,15.529.02.02a1.447,1.447,0,0,0,1.017.542h6.5a.238.238,0,0,0,.24-.242.264.264,0,0,0-.084-.184l-9.627-9.6,9.629-9.6A.242.242,0,0,0,51,15.637a.248.248,0,0,0-.22-.184l-6.416,0a1.273,1.273,0,0,0-.938.413l0,0-5.867,5.866h0l-2.745-2.748,9.653-9.649a.241.241,0,0,0,.07-.228.248.248,0,0,0-.208-.186l-6.391.014a1.322,1.322,0,0,0-1,.394l-9.276,9.286a.546.546,0,0,0-.148.371" transform="translate(0 0)" fill="#fff"/>
      </g>
    </g>
    <text id="FANSHAWE" transform="translate(-3084 6879)" fill="#fff" font-size="33" font-family="SegoeUI-Bold, Segoe UI" font-weight="700"><tspan x="0" y="0">FANSHAWE</tspan></text>
  </g>
</svg>
