<svg id="Group_39" data-name="Group 39" xmlns="http://www.w3.org/2000/svg" xmlns:xlink="http://www.w3.org/1999/xlink" width="35.264" height="35.256" viewBox="0 0 35.264 35.256">
  <defs>
    <clipPath id="clip-path">
      <rect id="Rectangle_1" data-name="Rectangle 1" width="35.264" height="35.256" fill="#fff"/>
    </clipPath>
  </defs>
  <g id="Group_1" data-name="Group 1" clip-path="url(#clip-path)">
    <path id="Path_1" data-name="Path 1" d="M6.127,9.04,6.118,4.621a.17.17,0,0,1,.129-.144.167.167,0,0,1,.158.048L13.075,11.2l1.9-1.9h0L10.919,5.245l0,0a.88.88,0,0,1-.286-.648c0-.008,0-4.436,0-4.436a.172.172,0,0,1,.127-.152.168.168,0,0,1,.165.048l6.638,6.657L24.2.057A.182.182,0,0,1,24.329,0,.164.164,0,0,1,24.5.166V4.658a1,1,0,0,1-.375.7l-.014.014L13.371,16.1a.409.409,0,0,1-.3.143.375.375,0,0,1-.256-.1L6.4,9.733a.915.915,0,0,1-.273-.692M9.732,28.8l6.413-6.42a.376.376,0,0,0,.1-.257.409.409,0,0,0-.143-.295L5.374,11.095l-.013-.014a1,1,0,0,0-.7-.375H.166A.164.164,0,0,0,0,10.874.181.181,0,0,0,.058,11L6.713,17.64.056,24.278a.167.167,0,0,0-.048.164.171.171,0,0,0,.152.127H4.594a.88.88,0,0,0,.648-.286l0,0L9.3,20.228h0l1.9,1.9L4.526,28.8a.166.166,0,0,0-.049.158.172.172,0,0,0,.144.129l4.419-.01a.913.913,0,0,0,.692-.272M28.774,30.73a.165.165,0,0,0,.158.049.171.171,0,0,0,.129-.144l-.01-4.419a.913.913,0,0,0-.272-.692l-6.42-6.413a.377.377,0,0,0-.257-.1.409.409,0,0,0-.295.143L11.071,29.881l-.013.013a1,1,0,0,0-.375.7V35.09a.165.165,0,0,0,.168.166.181.181,0,0,0,.127-.057l6.639-6.656L24.254,35.2a.167.167,0,0,0,.164.049.172.172,0,0,0,.127-.152s0-4.427,0-4.436a.88.88,0,0,0-.286-.648l0,0L20.2,25.955v0l1.9-1.9Zm-9.758-17.6a.408.408,0,0,0,.143.295l10.73,10.736.014.014a1,1,0,0,0,.7.375H35.1a.165.165,0,0,0,.166-.167.183.183,0,0,0-.058-.127L28.55,17.614l6.657-6.639a.167.167,0,0,0,.049-.164.171.171,0,0,0-.152-.127H30.669a.88.88,0,0,0-.648.286l0,0-4.056,4.056h0l-1.9-1.9,6.674-6.671a.167.167,0,0,0,.048-.158.172.172,0,0,0-.144-.129l-4.419.01a.914.914,0,0,0-.692.272l-6.413,6.42a.377.377,0,0,0-.1.257" transform="translate(0 0)" fill="#fff"/>
  </g>
</svg>
